<svg width="30" height="30" viewBox="0 0 30 30" fill="none" xmlns="http://www.w3.org/2000/svg">
<g clip-path="url(#clip0_3_669)">
<path d="M15.7043 15.0789L21.1221 20.4966C21.2726 20.6471 21.2726 20.891 21.1221 21.0415C21.0469 21.1168 20.9482 21.1543 20.8497 21.1543C20.751 21.1543 20.6525 21.1168 20.5774 21.0415L15.1189 15.583L9.66045 21.0415C9.58509 21.1168 9.4866 21.1543 9.38811 21.1543C9.28961 21.1543 9.19093 21.1168 9.11577 21.0415C8.96525 20.891 8.96525 20.6471 9.11577 20.4966L14.5333 15.0789L9.11213 9.65731C8.96162 9.50679 8.96162 9.26295 9.11213 9.11244C9.26264 8.96211 9.50649 8.96211 9.65681 9.11244L15.1187 14.5747L20.5812 9.11263C20.7317 8.96231 20.9754 8.96231 21.1259 9.11263C21.2764 9.26314 21.2764 9.50699 21.1259 9.6575L15.7043 15.0789Z" fill="#D58C51"/>
</g>
<circle cx="15" cy="15" r="14.5" stroke="#D58C51"/>
<defs>
<clipPath id="clip0_3_669">
<rect width="12.24" height="12.24" fill="white" transform="matrix(-1 0 0 1 21.2402 9)"/>
</clipPath>
</defs>
</svg>
